<svg xmlns="http://www.w3.org/2000/svg" width="31" height="40" viewBox="0 0 31 40">
  <defs>
    <style>
      .cls-1 {
        fill: #131212;
      }

      .cls-2, .cls-3 {
        stroke: none;
      }

      .cls-3 {
        fill: #707070;
      }
    </style>
  </defs>
  <g id="Polígono_1" data-name="Polígono 1" class="cls-1" transform="translate(31) rotate(90)">
    <path class="cls-2" d="M 30.82391929626465 30.49999618530273 L 9.176090240478516 30.49999618530273 C 7.50255012512207 30.49999618530273 6.025370121002197 29.62266540527344 5.22461986541748 28.15312576293945 C 4.423880100250244 26.68359565734863 4.487480163574219 24.96669578552246 5.394750118255615 23.56042671203613 L 16.21866035461426 6.783356189727783 C 17.05102920532227 5.493185997009277 18.46462059020996 4.722936153411865 20 4.722936153411865 C 21.53537940979004 4.722936153411865 22.94895935058594 5.493185997009277 23.78133010864258 6.783356189727783 L 34.60525131225586 23.56042671203613 C 35.51251983642578 24.96669578552246 35.57611846923828 26.68359565734863 34.7753791809082 28.15313529968262 C 33.97463989257813 29.62266540527344 32.49745941162109 30.49999618530273 30.82391929626465 30.49999618530273 Z"/>
    <path class="cls-3" d="M 20 5.222936630249023 C 18.63521957397461 5.222936630249023 17.37870025634766 5.90760612487793 16.63882064819336 7.054426193237305 L 5.814899444580078 23.83149719238281 C 5.008438110351563 25.08150482177734 4.951900482177734 26.60764694213867 5.663669586181641 27.91389656066895 C 6.375438690185547 29.22014617919922 7.688491821289063 29.99999618530273 9.176080703735352 29.99999618530273 L 30.82390975952148 29.99999618530273 C 32.31150054931641 29.99999618530273 33.62456130981445 29.22014617919922 34.33633041381836 27.91389656066895 C 35.04809951782227 26.60763549804688 34.99156188964844 25.08150482177734 34.18510055541992 23.83149719238281 L 23.36117935180664 7.054426193237305 C 22.62129974365234 5.90760612487793 21.36478042602539 5.222936630249023 20 5.222936630249023 M 20 4.222936630249023 C 21.6084041595459 4.222936630249023 23.21681022644043 4.986055374145508 24.20148086547852 6.512296676635742 L 35.02539825439453 23.28936576843262 C 37.17195129394531 26.61652565002441 34.78342056274414 30.99999618530273 30.82390975952148 30.99999618530273 L 9.176080703735352 30.99999618530273 C 5.216579437255859 30.99999618530273 2.828048706054688 26.61652565002441 4.974601745605469 23.28936576843262 L 15.79851913452148 6.512296676635742 C 16.78318977355957 4.986055374145508 18.3915958404541 4.222936630249023 20 4.222936630249023 Z"/>
  </g>
</svg>
